<?xml version="1.0" encoding="UTF-8" standalone="no"?><svg xmlns="http://www.w3.org/2000/svg" xmlns:xlink="http://www.w3.org/1999/xlink" contentStyleType="text/css" height="425px" preserveAspectRatio="none" style="width:251px;height:425px;background:#FFFFFF;" version="1.1" viewBox="0 0 251 425" width="251px" zoomAndPan="magnify"><defs/><g><rect fill="#F1F1F1" height="37.6094" rx="12.5" ry="12.5" style="stroke:#181818;stroke-width:1.5;" width="67" x="10" y="192.8281"/><text fill="#000000" font-family="sans-serif" font-size="14" lengthAdjust="spacing" textLength="47" x="20" y="217.3613">buttons</text><rect fill="#F1F1F1" height="37.6094" rx="12.5" ry="12.5" style="stroke:#181818;stroke-width:1.5;" width="103" x="127" y="20"/><text fill="#000000" font-family="sans-serif" font-size="14" lengthAdjust="spacing" textLength="83" x="137" y="44.5332">digits (0 to 9)</text><path d="M77,211.6328 L87,211.6328 C102,211.6328 102,38.8047 117,38.8047 L127,38.8047 " fill="none" style="stroke:#181818;stroke-width:1.0;"/><rect fill="#F1F1F1" height="37.6094" rx="12.5" ry="12.5" style="stroke:#181818;stroke-width:1.5;" width="112" x="127" y="77.6094"/><text fill="#000000" font-family="sans-serif" font-size="14" lengthAdjust="spacing" textLength="92" x="137" y="102.1426">operator * / + -</text><path d="M77,211.6328 L87,211.6328 C102,211.6328 102,96.4141 117,96.4141 L127,96.4141 " fill="none" style="stroke:#181818;stroke-width:1.0;"/><rect fill="#F1F1F1" height="37.6094" rx="12.5" ry="12.5" style="stroke:#181818;stroke-width:1.5;" width="40" x="127" y="135.2188"/><text fill="#000000" font-family="sans-serif" font-size="14" lengthAdjust="spacing" textLength="20" x="137" y="159.752">dot</text><path d="M77,211.6328 L87,211.6328 C102,211.6328 102,154.0234 117,154.0234 L127,154.0234 " fill="none" style="stroke:#181818;stroke-width:1.0;"/><rect fill="#F1F1F1" height="37.6094" rx="12.5" ry="12.5" style="stroke:#181818;stroke-width:1.5;" width="39" x="127" y="192.8281"/><text fill="#000000" font-family="sans-serif" font-size="14" lengthAdjust="spacing" textLength="19" x="137" y="217.3613">AC</text><path d="M77,211.6328 L87,211.6328 C102,211.6328 102,211.6328 117,211.6328 L127,211.6328 " fill="none" style="stroke:#181818;stroke-width:1.0;"/><rect fill="#F1F1F1" height="37.6094" rx="12.5" ry="12.5" style="stroke:#181818;stroke-width:1.5;" width="41" x="127" y="250.4375"/><text fill="#000000" font-family="sans-serif" font-size="14" lengthAdjust="spacing" textLength="21" x="137" y="274.9707">Del</text><path d="M77,211.6328 L87,211.6328 C102,211.6328 102,269.2422 117,269.2422 L127,269.2422 " fill="none" style="stroke:#181818;stroke-width:1.0;"/><rect fill="#F1F1F1" height="37.6094" rx="12.5" ry="12.5" style="stroke:#181818;stroke-width:1.5;" width="28" x="127" y="308.0469"/><text fill="#000000" font-family="sans-serif" font-size="14" lengthAdjust="spacing" textLength="8" x="137" y="332.5801">±</text><path d="M77,211.6328 L87,211.6328 C102,211.6328 102,326.8516 117,326.8516 L127,326.8516 " fill="none" style="stroke:#181818;stroke-width:1.0;"/><rect fill="#F1F1F1" height="37.6094" rx="12.5" ry="12.5" style="stroke:#181818;stroke-width:1.5;" width="32" x="127" y="365.6563"/><text fill="#000000" font-family="sans-serif" font-size="14" font-weight="bold" lengthAdjust="spacing" textLength="8" x="137" y="390.1895">=</text><text fill="#000000" font-family="sans-serif" font-size="14" lengthAdjust="spacing" textLength="4" x="145" y="390.1895"> </text><path d="M77,211.6328 L87,211.6328 C102,211.6328 102,384.4609 117,384.4609 L127,384.4609 " fill="none" style="stroke:#181818;stroke-width:1.0;"/><!--MD5=[9e90ba6dc3a7438eb952753f7d99b90a]
@startmindmap
' top to bottom direction
* buttons
** digits (0 to 9)
** operator * / + -
** dot
** AC
** Del
** ±
** **=** 
@endmindmap

@startmindmap
* buttons
** digits (0 to 9)
** operator * / + -
** dot
** AC
** Del
** ±
** **=** 
@endmindmap

PlantUML version 1.2022.7(Mon Aug 22 19:01:30 EET 2022)
(GPL source distribution)
Java Runtime: Java(TM) SE Runtime Environment
JVM: Java HotSpot(TM) 64-Bit Server VM
Default Encoding: Cp1252
Language: en
Country: US
--></g></svg>